<svg xmlns="http://www.w3.org/2000/svg" width="926px" height="481px" viewBox="0 0 926 481" xmlns:xlink="http://www.w3.org/1999/xlink" style="overflow: hidden; display: block; width: 926px; height: 481px;"><defs><path fill="rgb(51,102,153)" stroke="rgb(51,102,153)" d="M 5,-5 L 0,0 L 5,5 Z" fill-opacity="1" stroke-opacity="1" stroke-width="1" stroke-linecap="butt" stroke-linejoin="miter" stroke-miterlimit="10" id="ygc46_0"/></defs><g style="pointer-events:visiblePainted" transform="translate(-148.875 -79.125)" image-rendering="auto" shape-rendering="auto"><g><path fill="none" stroke="rgb(51,102,153)" d="M 249,471 L 193.5,471 L 193.5,162 L 244.25,162" stroke-opacity="1" stroke-width="1" stroke-linecap="butt" stroke-linejoin="miter" stroke-miterlimit="10"/><use transform="matrix(-0.75 0 0 -0.75 247.46966991411009 162)" style="pointer-events: none;" xlink:href="#ygc46_0"/></g><g transform="matrix(6.123233995736766e-17 -1 1 6.123233995736766e-17 173.5 372.4129310344827)"><text font-family="'Arial'" font-size="13px" font-style="normal" font-weight="normal" text-decoration="none" text-anchor="middle" fill="rgb(0,0,0)" fill-opacity="1" dy="0.90625em" transform="translate(37 0.453125)">new iteration</text></g><g><path fill="none" stroke="rgb(51,102,153)" d="M 399,162 L 516.5,162" stroke-opacity="1" stroke-width="1" stroke-linecap="butt" stroke-linejoin="miter" stroke-miterlimit="10"/><use transform="matrix(-0.75 0 0 -0.75 519.7196699141101 162)" style="pointer-events: none;" xlink:href="#ygc46_0"/></g><g><path fill="none" stroke="rgb(51,102,153)" d="M 670.5914666367337,146.43110646351127 L 724.5098057778437,135.13930769050395" stroke-opacity="1" stroke-width="1" stroke-linecap="butt" stroke-linejoin="miter" stroke-miterlimit="10"/><use transform="matrix(-0.7340750417054527 0.1537329930273198 -0.1537329930273198 -0.7340750417054527 727.6611115464813 134.47934836722908)" style="pointer-events: none;" xlink:href="#ygc46_0"/></g><g><path fill="none" stroke="rgb(51,102,153)" d="M 671.25,167.4973821989529 L 723.5127088793872,171.32815667178755" stroke-opacity="1" stroke-width="1" stroke-linecap="butt" stroke-linejoin="miter" stroke-miterlimit="10"/><use transform="matrix(-0.7479933348335909 -0.05482673658466106 0.05482673658466106 -0.7479933348335909 726.723764394212 171.5635219974815)" style="pointer-events: none;" xlink:href="#ygc46_0"/></g><g><path fill="none" stroke="rgb(51,102,153)" d="M 596.25,184 L 596.25,238.25" stroke-opacity="1" stroke-width="1" stroke-linecap="butt" stroke-linejoin="miter" stroke-miterlimit="10"/><use transform="matrix(0 -0.75 0.75 0 596.25 241.46966991411009)" style="pointer-events: none;" xlink:href="#ygc46_0"/></g><g><path fill="none" stroke="rgb(51,102,153)" d="M 596.25,287 L 596.25,341.25" stroke-opacity="1" stroke-width="1" stroke-linecap="butt" stroke-linejoin="miter" stroke-miterlimit="10"/><use transform="matrix(0 -0.75 0.75 0 596.25 344.4696699141101)" style="pointer-events: none;" xlink:href="#ygc46_0"/></g><g><path fill="none" stroke="rgb(51,102,153)" d="M 671.25,262.84031413612564 L 723.5019681231679,261.3356763105894" stroke-opacity="1" stroke-width="1" stroke-linecap="butt" stroke-linejoin="miter" stroke-miterlimit="10"/><use transform="matrix(-0.7496892437103246 0.021587910159197646 -0.021587910159197646 -0.7496892437103246 726.7203039937093 261.24300171745864)" style="pointer-events: none;" xlink:href="#ygc46_0"/></g><g><path fill="none" stroke="rgb(51,102,153)" d="M 596.25,390 L 596.25,444.25" stroke-opacity="1" stroke-width="1" stroke-linecap="butt" stroke-linejoin="miter" stroke-miterlimit="10"/><use transform="matrix(0 -0.75 0.75 0 596.25 447.4696699141101)" style="pointer-events: none;" xlink:href="#ygc46_0"/></g><g><path fill="none" stroke="rgb(51,102,153)" d="M 669.9260738167875,351.02750131969293 L 725.1094621447991,338.3150977258055" stroke-opacity="1" stroke-width="1" stroke-linecap="butt" stroke-linejoin="miter" stroke-miterlimit="10"/><use transform="matrix(-0.7308578345861304 0.1683651556114637 -0.1683651556114637 -0.7308578345861304 728.2469567868106 337.59232409099656)" style="pointer-events: none;" xlink:href="#ygc46_0"/></g><g><path fill="none" stroke="rgb(51,102,153)" d="M 671.25,368 L 723.5,368" stroke-opacity="1" stroke-width="1" stroke-linecap="butt" stroke-linejoin="miter" stroke-miterlimit="10"/><use transform="matrix(-0.75 0 0 -0.75 726.7196699141101 368)" style="pointer-events: none;" xlink:href="#ygc46_0"/></g><g><path fill="none" stroke="rgb(51,102,153)" d="M 669.5058544583147,385.6427712307983 L 725.4634361208358,399.1194662908819" stroke-opacity="1" stroke-width="1" stroke-linecap="butt" stroke-linejoin="miter" stroke-miterlimit="10"/><use transform="matrix(-0.7291516378949578 -0.17560720074957104 0.17560720074957104 -0.7291516378949578 728.5936062426418 399.8733292521546)" style="pointer-events: none;" xlink:href="#ygc46_0"/></g><g><path fill="none" stroke="rgb(51,102,153)" d="M 521.25,471 L 482.25,471 L 482.25,368 L 516.5,368" stroke-opacity="1" stroke-width="1" stroke-linecap="butt" stroke-linejoin="miter" stroke-miterlimit="10"/><use transform="matrix(-0.75 0 0 -0.75 519.7196699141101 368)" style="pointer-events: none;" xlink:href="#ygc46_0"/></g><g transform="matrix(6.123233995736766e-17 -1 1 6.123233995736766e-17 463.25 441)"><text font-family="'Arial'" font-size="12px" font-style="normal" font-weight="normal" text-decoration="none" text-anchor="middle" fill="rgb(0,0,0)" fill-opacity="1" dy="0.90625em" transform="translate(21.5 0.578125)">iteration</text></g><g><path fill="none" stroke="rgb(51,102,153)" d="M 521.25,471 L 403.75,471" stroke-opacity="1" stroke-width="1" stroke-linecap="butt" stroke-linejoin="miter" stroke-miterlimit="10"/><use transform="matrix(0.75 0 0 0.75 400.5303300858899 471)" style="pointer-events: none;" xlink:href="#ygc46_0"/></g><g><path fill="none" stroke="rgb(51,102,153)" d="M 596.25,449 L 596.25,429 L 596.25,429 L 596.25,444.25" stroke-opacity="1" stroke-width="1" stroke-linecap="butt" stroke-linejoin="miter" stroke-miterlimit="10"/><use transform="matrix(0 -0.75 0.75 0 596.25 447.4696699141101)" style="pointer-events: none;" xlink:href="#ygc46_0"/></g><rect fill="rgb(96,177,96)" stroke="rgb(96,177,96)" width="150" height="44" x="249" y="140" rx="10" ry="10" fill-opacity="1" stroke-opacity="1" stroke-width="1" stroke-linecap="butt" stroke-linejoin="miter" stroke-miterlimit="10"/><g transform="translate(258 143.5)"><text font-family="'Arial'" font-size="14px" font-style="normal" font-weight="normal" text-decoration="none" text-anchor="middle" fill="rgb(0,0,0)" fill-opacity="1" transform="translate(66 0.171875)"><tspan dy="0.90625em" x="0">requirement </tspan><tspan dy="1.5em" x="0">definition &amp; collection</tspan></text></g><rect fill="rgb(96,177,96)" stroke="rgb(96,177,96)" width="150" height="44" x="521.25" y="140" rx="10" ry="10" fill-opacity="1" stroke-opacity="1" stroke-width="1" stroke-linecap="butt" stroke-linejoin="miter" stroke-miterlimit="10"/><g transform="translate(530.75 154)"><text font-family="'Arial'" font-size="14px" font-style="normal" font-weight="normal" text-decoration="none" text-anchor="middle" fill="rgb(0,0,0)" fill-opacity="1" dy="0.90625em" transform="translate(65.5 0.171875)">module development</text></g><rect fill="rgb(96,177,96)" stroke="rgb(96,177,96)" width="150" height="44" x="521.25" y="243" rx="10" ry="10" fill-opacity="1" stroke-opacity="1" stroke-width="1" stroke-linecap="butt" stroke-linejoin="miter" stroke-miterlimit="10"/><g transform="translate(547.75 257)"><text font-family="'Arial'" font-size="14px" font-style="normal" font-weight="normal" text-decoration="none" text-anchor="middle" fill="rgb(0,0,0)" fill-opacity="1" dy="0.90625em" transform="translate(48.5 0.171875)">data production</text></g><rect fill="rgb(85,232,50)" stroke="rgb(85,232,50)" width="118" height="36" x="728.25" y="104" rx="10" ry="10" fill-opacity="0.47843137254901963" stroke-opacity="0.47843137254901963" stroke-width="1" stroke-linecap="butt" stroke-linejoin="miter" stroke-miterlimit="10"/><g transform="translate(731.75 106)"><text font-family="'Arial'" font-size="12px" font-style="normal" font-weight="normal" text-decoration="none" text-anchor="middle" fill="rgb(0,0,0)" fill-opacity="1" transform="translate(55.5 0.2890625)"><tspan dy="0.90625em" x="0">class and properties </tspan><tspan dy="1.5em" x="0">creation</tspan></text></g><rect fill="rgb(85,232,50)" stroke="rgb(85,232,50)" width="118" height="36" x="728.25" y="158" rx="10" ry="10" fill-opacity="0.5019607843137255" stroke-opacity="0.5019607843137255" stroke-width="1" stroke-linecap="butt" stroke-linejoin="miter" stroke-miterlimit="10"/><g transform="translate(728.25 160)"><text font-family="'Arial'" font-size="12px" font-style="normal" font-weight="normal" text-decoration="none" text-anchor="middle" fill="rgb(0,0,0)" fill-opacity="1" transform="translate(59 0.2890625)"><tspan dy="0.90625em" x="0">ArCo already existing </tspan><tspan dy="1.5em" x="0">entries check</tspan></text></g><rect fill="rgb(96,177,96)" stroke="rgb(96,177,96)" width="150" height="44" x="521.25" y="346" rx="10" ry="10" fill-opacity="1" stroke-opacity="1" stroke-width="1" stroke-linecap="butt" stroke-linejoin="miter" stroke-miterlimit="10"/><g transform="translate(575.25 360)"><text font-family="'Arial'" font-size="14px" font-style="normal" font-weight="normal" text-decoration="none" text-anchor="middle" fill="rgb(0,0,0)" fill-opacity="1" dy="0.90625em" transform="translate(21 0.171875)">testing</text></g><rect fill="rgb(85,232,50)" stroke="rgb(85,232,50)" width="118" height="36" x="728.25" y="350" rx="10" ry="10" fill-opacity="0.47843137254901963" stroke-opacity="0.47843137254901963" stroke-width="1" stroke-linecap="butt" stroke-linejoin="miter" stroke-miterlimit="10"/><g transform="translate(738.25 361)"><text font-family="'Arial'" font-size="12px" font-style="normal" font-weight="normal" text-decoration="none" text-anchor="middle" fill="rgb(0,0,0)" fill-opacity="1" dy="0.90625em" transform="translate(49 0.2890625)">consistency check</text></g><rect fill="rgb(85,232,50)" stroke="rgb(85,232,50)" width="118" height="36" x="728.25" y="396" rx="10" ry="10" fill-opacity="0.47843137254901963" stroke-opacity="0.47843137254901963" stroke-width="1" stroke-linecap="butt" stroke-linejoin="miter" stroke-miterlimit="10"/><g transform="translate(746.25 407)"><text font-family="'Arial'" font-size="12px" font-style="normal" font-weight="normal" text-decoration="none" text-anchor="middle" fill="rgb(0,0,0)" fill-opacity="1" dy="0.90625em" transform="translate(41 0.2890625)">reliability check</text></g><rect fill="rgb(85,232,50)" stroke="rgb(85,232,50)" width="118" height="36" x="728.25" y="306" rx="10" ry="10" fill-opacity="0.47843137254901963" stroke-opacity="0.47843137254901963" stroke-width="1" stroke-linecap="butt" stroke-linejoin="miter" stroke-miterlimit="10"/><g transform="translate(747.75 317)"><text font-family="'Arial'" font-size="12px" font-style="normal" font-weight="normal" text-decoration="none" text-anchor="middle" fill="rgb(0,0,0)" fill-opacity="1" dy="0.90625em" transform="translate(39.5 0.2890625)">CQ verification</text></g><rect fill="rgb(96,177,96)" stroke="rgb(96,177,96)" width="150" height="44" x="521.25" y="449" rx="10" ry="10" fill-opacity="1" stroke-opacity="1" stroke-width="1" stroke-linecap="butt" stroke-linejoin="miter" stroke-miterlimit="10"/><g transform="translate(547.75 463)"><text font-family="'Arial'" font-size="14px" font-style="normal" font-weight="normal" text-decoration="none" text-anchor="middle" fill="rgb(0,0,0)" fill-opacity="1" dy="0.90625em" transform="translate(48.5 0.171875)">fix &amp; integration</text></g><rect fill="rgb(96,177,96)" stroke="rgb(96,177,96)" width="150" height="44" x="249" y="449" rx="10" ry="10" fill-opacity="1" stroke-opacity="1" stroke-width="1" stroke-linecap="butt" stroke-linejoin="miter" stroke-miterlimit="10"/><g transform="translate(299 463)"><text font-family="'Arial'" font-size="14px" font-style="normal" font-weight="normal" text-decoration="none" text-anchor="middle" fill="rgb(0,0,0)" fill-opacity="1" dy="0.90625em" transform="translate(25 0.171875)">release </text></g><rect fill="rgb(85,232,50)" stroke="rgb(85,232,50)" width="118" height="36" x="728.25" y="241.5" rx="10" ry="10" fill-opacity="0.47843137254901963" stroke-opacity="0.47843137254901963" stroke-width="1" stroke-linecap="butt" stroke-linejoin="miter" stroke-miterlimit="10"/><g transform="translate(740.75 252.5)"><text font-family="'Arial'" font-size="12px" font-style="normal" font-weight="normal" text-decoration="none" text-anchor="middle" fill="rgb(0,0,0)" fill-opacity="1" dy="0.90625em" transform="translate(46.5 0.2890625)">individual dataset</text></g><g><svg xmlns="http://www.w3.org/2000/svg" viewBox="0 0 448 512" width="30" height="30" fill="rgb(51,102,153)" fill-opacity="1" x="862.5" y="244.5"><path d="M448 73.143v45.714C448 159.143 347.667 192 224 192S0 159.143 0 118.857V73.143C0 32.857 100.333 0 224 0s224 32.857 224 73.143zM448 176v102.857C448 319.143 347.667 352 224 352S0 319.143 0 278.857V176c48.125 33.143 136.208 48.572 224 48.572S399.874 209.143 448 176zm0 160v102.857C448 479.143 347.667 512 224 512S0 479.143 0 438.857V336c48.125 33.143 136.208 48.572 224 48.572S399.874 369.143 448 336z"/></svg></g><rect fill="rgb(85,232,50)" stroke="rgb(85,232,50)" width="118" height="32" x="919.25" y="127" rx="10" ry="10" fill-opacity="0" stroke-opacity="0" stroke-width="1" stroke-linecap="butt" stroke-linejoin="miter" stroke-miterlimit="10"/><g transform="translate(906.75 109)"><text font-family="'Arial'" font-size="12px" font-style="normal" font-weight="normal" text-decoration="none" text-anchor="start" fill="rgb(0,0,0)" fill-opacity="1" transform="translate(0 0.2890625)"><tspan dy="0.90625em" x="0">property characteristics, </tspan><tspan dy="1.5em" x="0">class restrictions and </tspan><tspan dy="1.5em" x="0">equivalences specification </tspan><tspan dy="1.5em" x="0">through Protégé</tspan></text></g><g><svg xmlns="http://www.w3.org/2000/svg" viewBox="0 0 640 512" width="30" height="30" fill="rgb(51,102,153)" fill-opacity="1" x="249" y="193.5"><path d="M128 352H32c-17.67 0-32 14.33-32 32v96c0 17.67 14.33 32 32 32h96c17.67 0 32-14.33 32-32v-96c0-17.67-14.33-32-32-32zm-24-80h192v48h48v-48h192v48h48v-57.59c0-21.17-17.23-38.41-38.41-38.41H344v-64h40c17.67 0 32-14.33 32-32V32c0-17.67-14.33-32-32-32H256c-17.67 0-32 14.33-32 32v96c0 17.67 14.33 32 32 32h40v64H94.41C73.23 224 56 241.23 56 262.41V320h48v-48zm264 80h-96c-17.67 0-32 14.33-32 32v96c0 17.67 14.33 32 32 32h96c17.67 0 32-14.33 32-32v-96c0-17.67-14.33-32-32-32zm240 0h-96c-17.67 0-32 14.33-32 32v96c0 17.67 14.33 32 32 32h96c17.67 0 32-14.33 32-32v-96c0-17.67-14.33-32-32-32z"/></svg></g><g><svg xmlns="http://www.w3.org/2000/svg" viewBox="0 0 640 512" width="30" height="30" fill="rgb(51,102,153)" fill-opacity="1" x="862.5" y="128"><path d="M384 320H256c-17.67 0-32 14.33-32 32v128c0 17.67 14.33 32 32 32h128c17.67 0 32-14.33 32-32V352c0-17.67-14.33-32-32-32zM192 32c0-17.67-14.33-32-32-32H32C14.33 0 0 14.33 0 32v128c0 17.67 14.33 32 32 32h95.72l73.16 128.04C211.98 300.98 232.4 288 256 288h.28L192 175.51V128h224V64H192V32zM608 0H480c-17.67 0-32 14.33-32 32v128c0 17.67 14.33 32 32 32h128c17.67 0 32-14.33 32-32V32c0-17.67-14.33-32-32-32z"/></svg></g><g><svg xmlns="http://www.w3.org/2000/svg" viewBox="0 0 512 512" width="30" height="30" fill="rgb(51,102,153)" fill-opacity="1" x="862.5" y="356"><path d="M139.61 35.5a12 12 0 0 0-17 0L58.93 98.81l-22.7-22.12a12 12 0 0 0-17 0L3.53 92.41a12 12 0 0 0 0 17l47.59 47.4a12.78 12.78 0 0 0 17.61 0l15.59-15.62L156.52 69a12.09 12.09 0 0 0 .09-17zm0 159.19a12 12 0 0 0-17 0l-63.68 63.72-22.7-22.1a12 12 0 0 0-17 0L3.53 252a12 12 0 0 0 0 17L51 316.5a12.77 12.77 0 0 0 17.6 0l15.7-15.69 72.2-72.22a12 12 0 0 0 .09-16.9zM64 368c-26.49 0-48.59 21.5-48.59 48S37.53 464 64 464a48 48 0 0 0 0-96zm432 16H208a16 16 0 0 0-16 16v32a16 16 0 0 0 16 16h288a16 16 0 0 0 16-16v-32a16 16 0 0 0-16-16zm0-320H208a16 16 0 0 0-16 16v32a16 16 0 0 0 16 16h288a16 16 0 0 0 16-16V80a16 16 0 0 0-16-16zm0 160H208a16 16 0 0 0-16 16v32a16 16 0 0 0 16 16h288a16 16 0 0 0 16-16v-32a16 16 0 0 0-16-16z"/></svg></g><g><svg xmlns="http://www.w3.org/2000/svg" viewBox="0 0 576 512" width="30" height="30" fill="rgb(51,102,153)" fill-opacity="1" x="538.25" y="503.25"><path d="M402.6 83.2l90.2 90.2c3.8 3.8 3.8 10 0 13.8L274.4 405.6l-92.8 10.3c-12.4 1.4-22.9-9.1-21.5-21.5l10.3-92.8L388.8 83.2c3.8-3.8 10-3.8 13.8 0zm162-22.9l-48.8-48.8c-15.2-15.2-39.9-15.2-55.2 0l-35.4 35.4c-3.8 3.8-3.8 10 0 13.8l90.2 90.2c3.8 3.8 10 3.8 13.8 0l35.4-35.4c15.2-15.3 15.2-40 0-55.2zM384 346.2V448H64V128h229.8c3.2 0 6.2-1.3 8.5-3.5l40-40c7.6-7.6 2.2-20.5-8.5-20.5H48C21.5 64 0 85.5 0 112v352c0 26.5 21.5 48 48 48h352c26.5 0 48-21.5 48-48V306.2c0-10.7-12.9-16-20.5-8.5l-40 40c-2.2 2.3-3.5 5.3-3.5 8.5z"/></svg></g><g><svg xmlns="http://www.w3.org/2000/svg" viewBox="0 0 512 512" width="30" height="30" fill="rgb(51,102,153)" fill-opacity="1" x="256.25" y="503.25"><path d="M296 384h-80c-13.3 0-24-10.7-24-24V192h-87.7c-17.8 0-26.7-21.5-14.1-34.1L242.3 5.7c7.5-7.5 19.8-7.5 27.3 0l152.2 152.2c12.6 12.6 3.7 34.1-14.1 34.1H320v168c0 13.3-10.7 24-24 24zm216-8v112c0 13.3-10.7 24-24 24H24c-13.3 0-24-10.7-24-24V376c0-13.3 10.7-24 24-24h136v8c0 30.9 25.1 56 56 56h80c30.9 0 56-25.1 56-56v-8h136c13.3 0 24 10.7 24 24zm-124 88c0-11-9-20-20-20s-20 9-20 20 9 20 20 20 20-9 20-20zm64 0c0-11-9-20-20-20s-20 9-20 20 9 20 20 20 20-9 20-20z"/></svg></g><rect fill="rgb(85,232,50)" stroke="rgb(85,232,50)" width="118" height="32" x="300" y="193.5" rx="10" ry="10" fill-opacity="0" stroke-opacity="0" stroke-width="1" stroke-linecap="butt" stroke-linejoin="miter" stroke-miterlimit="10"/><g transform="translate(294 193.5)"><text font-family="'Arial'" font-size="12px" font-style="normal" font-weight="normal" text-decoration="none" text-anchor="start" fill="rgb(0,0,0)" fill-opacity="1" transform="translate(0 0.2890625)"><tspan dy="0.90625em" x="0">data feature abstraction </tspan><tspan dy="1.5em" x="0">and visualization</tspan></text></g><rect fill="rgb(85,232,50)" stroke="rgb(85,232,50)" width="118" height="32" x="903.25" y="243.5" rx="10" ry="10" fill-opacity="0" stroke-opacity="0" stroke-width="1" stroke-linecap="butt" stroke-linejoin="miter" stroke-miterlimit="10"/><g transform="translate(905.25 252.5)"><text font-family="'Arial'" font-size="12px" font-style="normal" font-weight="normal" text-decoration="none" text-anchor="start" fill="rgb(0,0,0)" fill-opacity="1" transform="translate(0 0.2890625)"><tspan dy="0.90625em" x="0">RDF/XML description</tspan></text></g><rect fill="rgb(85,232,50)" stroke="rgb(85,232,50)" width="118" height="32" x="919.25" y="355" rx="10" ry="10" fill-opacity="0" stroke-opacity="0" stroke-width="1" stroke-linecap="butt" stroke-linejoin="miter" stroke-miterlimit="10"/><g transform="translate(906.25 355)"><text font-family="'Arial'" font-size="12px" font-style="normal" font-weight="normal" text-decoration="none" text-anchor="start" fill="rgb(0,0,0)" fill-opacity="1" transform="translate(0 0.2890625)"><tspan dy="0.90625em" x="0">SPARQL queries, Fuseki,</tspan><tspan dy="1.5em" x="0">wikidata SPARQL endpoint</tspan></text></g><rect fill="rgb(85,232,50)" stroke="rgb(85,232,50)" width="137.25" height="32" x="559.75" y="503.25" rx="10" ry="10" fill-opacity="0" stroke-opacity="0" stroke-width="1" stroke-linecap="butt" stroke-linejoin="miter" stroke-miterlimit="10"/><g transform="translate(581.875 503.25)"><text font-family="'Arial'" font-size="12px" font-style="normal" font-weight="normal" text-decoration="none" text-anchor="start" fill="rgb(0,0,0)" fill-opacity="1" transform="translate(0 0.2890625)"><tspan dy="0.90625em" x="0">module data edit </tspan><tspan dy="1.5em" x="0">through Protégé</tspan></text></g><rect fill="rgb(85,232,50)" stroke="rgb(85,232,50)" width="137.25" height="32" x="292.75" y="503.25" rx="10" ry="10" fill-opacity="0" stroke-opacity="0" stroke-width="1" stroke-linecap="butt" stroke-linejoin="miter" stroke-miterlimit="10"/><rect fill="rgb(85,232,50)" stroke="rgb(85,232,50)" width="137.25" height="32" x="292.75" y="503.25" rx="10" ry="10" fill-opacity="0" stroke-opacity="0" stroke-width="1" stroke-linecap="butt" stroke-linejoin="miter" stroke-miterlimit="10"/><g transform="translate(296.875 503.25)"><text font-family="'Arial'" font-size="12px" font-style="normal" font-weight="normal" text-decoration="none" text-anchor="start" fill="rgb(0,0,0)" fill-opacity="1" transform="translate(0 0.2890625)"><tspan dy="0.90625em" x="0">ontology pubblication </tspan><tspan dy="1.5em" x="0">and LODE visualization </tspan></text></g></g></svg>